<svg width="24" height="24" viewBox="0 0 24 24" fill="none" xmlns="http://www.w3.org/2000/svg">
<path d="M17.1918 8.66347C18.7352 9.77064 20.6258 10.4221 22.6679 10.4221V6.47861C22.2814 6.47869 21.8959 6.43825 21.5179 6.35786V9.46193C19.476 9.46193 17.5856 8.81049 16.0418 7.7034V15.7509C16.0418 19.7766 12.7899 23.0399 8.77868 23.0399C7.28201 23.0399 5.89091 22.5858 4.73532 21.807C6.05423 23.1604 7.89356 24 9.92844 24C13.9399 24 17.192 20.7367 17.192 16.7108V8.66347H17.1918V8.66347ZM18.6105 4.68499C17.8217 3.82023 17.3039 2.70267 17.1918 1.46717V0.959961H16.102C16.3763 2.53028 17.312 3.87187 18.6105 4.68499ZM7.27241 18.7178C6.83173 18.1379 6.59359 17.4286 6.59466 16.6992C6.59466 14.858 8.08207 13.3651 9.91712 13.3651C10.2591 13.365 10.5991 13.4176 10.925 13.5214V9.48977C10.5441 9.43738 10.1597 9.41514 9.77545 9.4233V12.5613C9.44929 12.4575 9.10919 12.4048 8.76712 12.4051C6.93206 12.4051 5.44473 13.8979 5.44473 15.7393C5.44473 17.0414 6.18819 18.1687 7.27241 18.7178Z" fill="#FF004F"/>
<path d="M16.0417 7.70332C17.5855 8.81041 19.4759 9.46185 21.5178 9.46185V6.35778C20.378 6.11414 19.369 5.5164 18.6104 4.68499C17.3118 3.87179 16.3763 2.5302 16.1019 0.959961H13.2394V16.7106C13.2329 18.5468 11.748 20.0336 9.91689 20.0336C8.83784 20.0336 7.87922 19.5174 7.2721 18.7178C6.18796 18.1687 5.4445 17.0413 5.4445 15.7394C5.4445 13.8981 6.93183 12.4052 8.76689 12.4052C9.11847 12.4052 9.45735 12.4602 9.77522 12.5614V9.42338C5.83449 9.50509 2.66518 12.7365 2.66518 16.7107C2.66518 18.6946 3.45441 20.493 4.73534 21.8071C5.89092 22.5858 7.28202 23.04 8.7787 23.04C12.79 23.04 16.0418 19.7765 16.0418 15.7509V7.70332H16.0417Z" fill="black"/>
<path d="M21.5178 6.3578V5.51848C20.49 5.52005 19.4824 5.23119 18.6104 4.68493C19.3823 5.53306 20.3988 6.11787 21.5178 6.3578ZM16.102 0.959983C16.0758 0.809911 16.0557 0.658851 16.0418 0.507214V0H12.0893V15.7508C12.083 17.5868 10.5982 19.0736 8.76691 19.0736C8.22927 19.0736 7.72166 18.9455 7.27212 18.7179C7.87924 19.5174 8.83787 20.0335 9.91692 20.0335C11.7479 20.0335 13.233 18.5469 13.2394 16.7107V0.959983H16.102ZM9.77541 9.4234V8.52989C9.44515 8.48459 9.11218 8.46186 8.7788 8.46202C4.76719 8.46194 1.51527 11.7254 1.51527 15.7508C1.51527 18.2745 2.79333 20.4987 4.73544 21.807C3.45451 20.493 2.66528 18.6944 2.66528 16.7106C2.66528 12.7365 5.83451 9.50511 9.77541 9.4234Z" fill="#00F2EA"/>
</svg>
